<?xml version="1.0" encoding="UTF-8" standalone="no"?>
<!DOCTYPE svg PUBLIC "-//W3C//DTD SVG 1.1//EN"
 "http://www.w3.org/Graphics/SVG/1.1/DTD/svg11.dtd">
<!-- Generated by graphviz version 2.43.0 (0)
 -->
<!-- Title: G Pages: 1 -->
<svg width="847pt" height="723pt"
 viewBox="0.00 0.00 847.00 723.00" xmlns="http://www.w3.org/2000/svg" xmlns:xlink="http://www.w3.org/1999/xlink">
<g id="graph0" class="graph" transform="scale(1 1) rotate(0) translate(4 719)">
<title>G</title>
<polygon fill="white" stroke="transparent" points="-4,4 -4,-719 843,-719 843,4 -4,4"/>
<g id="clust1" class="cluster">
<title>cluster_root</title>
<g id="a_clust1"><a xlink:title="eventq_index=0&#10;full_system=false&#10;sim_quantum=0&#10;time_sync_enable=false&#10;time_sync_period=100000000000&#10;time_sync_spin_threshold=100000000">
<path fill="#bab6ae" stroke="#000000" d="M20,-8C20,-8 819,-8 819,-8 825,-8 831,-14 831,-20 831,-20 831,-695 831,-695 831,-701 825,-707 819,-707 819,-707 20,-707 20,-707 14,-707 8,-701 8,-695 8,-695 8,-20 8,-20 8,-14 14,-8 20,-8"/>
<text text-anchor="middle" x="419.5" y="-691.8" font-family="Arial" font-size="14.00" fill="#000000">root </text>
<text text-anchor="middle" x="419.5" y="-676.8" font-family="Arial" font-size="14.00" fill="#000000">: Root</text>
</a>
</g>
</g>
<g id="clust2" class="cluster">
<title>cluster_system</title>
<g id="a_clust2"><a xlink:title="byte_order=little&#10;cache_line_size=64&#10;eventq_index=0&#10;exit_on_work_items=false&#10;init_param=0&#10;kvm_vm=Null&#10;m5ops_base=4294901760&#10;mem_mode=timing&#10;mem_ranges=0:536870912&#10;memories=system.mem_ctrl.dram&#10;mmap_using_noreserve=false&#10;multi_thread=false&#10;&#10;um_work_ids=16&#10;&#13;eadfile=&#10;&#13;edirect_paths=&#10;shadow_rom_ranges=&#10;shared_backstore=&#10;symbolfile=&#10;thermal_components=&#10;thermal_model=Null&#10;work_begin_ckpt_count=0&#10;work_begin_cpu_id_exit=&#45;1&#10;work_begin_exit_count=0&#10;work_cpus_ckpt_count=0&#10;work_end_ckpt_count=0&#10;work_end_exit_count=0&#10;work_item_id=&#45;1&#10;workload=system.workload">
<path fill="#e4e7eb" stroke="#000000" d="M28,-16C28,-16 811,-16 811,-16 817,-16 823,-22 823,-28 823,-28 823,-649 823,-649 823,-655 817,-661 811,-661 811,-661 28,-661 28,-661 22,-661 16,-655 16,-649 16,-649 16,-28 16,-28 16,-22 22,-16 28,-16"/>
<text text-anchor="middle" x="419.5" y="-645.8" font-family="Arial" font-size="14.00" fill="#000000">system </text>
<text text-anchor="middle" x="419.5" y="-630.8" font-family="Arial" font-size="14.00" fill="#000000">: System</text>
</a>
</g>
</g>
<g id="clust6" class="cluster">
<title>cluster_system_cpu</title>
<g id="a_clust6"><a xlink:title="LFSTSize=1024&#10;LQEntries=32&#10;LSQCheckLoads=true&#10;LSQDepCheckShift=4&#10;SQEntries=32&#10;SSITSize=1024&#10;activity=0&#10;backComSize=5&#10;branchPred=system.cpu.branchPred&#10;cacheLoadPorts=200&#10;cacheStorePorts=200&#10;checker=Null&#10;clk_domain=system.clk_domain&#10;commitToDecodeDelay=1&#10;commitToFetchDelay=1&#10;commitToIEWDelay=1&#10;commitToRenameDelay=1&#10;commitWidth=8&#10;cpu_id=&#45;1&#10;decodeToFetchDelay=1&#10;decodeToRenameDelay=1&#10;decodeWidth=8&#10;dispatchWidth=8&#10;do_checkpoint_insts=true&#10;do_statistics_insts=true&#10;eventq_index=0&#10;fetchBufferSize=64&#10;fetchQueueSize=32&#10;fetchToDecodeDelay=1&#10;fetchTrapLatency=1&#10;fetchWidth=8&#10;forwardComSize=5&#10;fuPool=system.cpu.fuPool&#10;function_trace=false&#10;function_trace_start=0&#10;iewToCommitDelay=1&#10;iewToDecodeDelay=1&#10;iewToFetchDelay=1&#10;iewToRenameDelay=1&#10;interrupts=system.cpu.interrupts&#10;isa=system.cpu.isa&#10;issueToExecuteDelay=1&#10;issueWidth=8&#10;max_insts_all_threads=0&#10;max_insts_any_thread=0&#10;mmu=system.cpu.mmu&#10;&#10;eedsTSO=true&#10;&#10;umIQEntries=64&#10;&#10;umPhysCCRegs=1280&#10;&#10;umPhysFloatRegs=256&#10;&#10;umPhysIntRegs=256&#10;&#10;umPhysVecPredRegs=32&#10;&#10;umPhysVecRegs=256&#10;&#10;umROBEntries=192&#10;&#10;umRobs=1&#10;&#10;umThreads=1&#10;power_gating_on_idle=false&#10;power_model=&#10;power_state=system.cpu.power_state&#10;progress_interval=0&#10;pwr_gating_latency=300&#10;&#13;enameToDecodeDelay=1&#10;&#13;enameToFetchDelay=1&#10;&#13;enameToIEWDelay=2&#10;&#13;enameToROBDelay=1&#10;&#13;enameWidth=8&#10;simpoint_start_insts=&#10;smtCommitPolicy=RoundRobin&#10;smtFetchPolicy=RoundRobin&#10;smtIQPolicy=Partitioned&#10;smtIQThreshold=100&#10;smtLSQPolicy=Partitioned&#10;smtLSQThreshold=100&#10;smtNumFetchingThreads=1&#10;smtROBPolicy=Partitioned&#10;smtROBThreshold=100&#10;socket_id=0&#10;squashWidth=8&#10;store_set_clear_period=250000&#10;switched_out=false&#10;syscallRetryLatency=10000&#10;system=system&#10;tracer=system.cpu.tracer&#10;trapLatency=13&#10;wbWidth=8&#10;workload=system.cpu.workload">
<path fill="#bbc6d9" stroke="#000000" d="M304,-24C304,-24 803,-24 803,-24 809,-24 815,-30 815,-36 815,-36 815,-288 815,-288 815,-294 809,-300 803,-300 803,-300 304,-300 304,-300 298,-300 292,-294 292,-288 292,-288 292,-36 292,-36 292,-30 298,-24 304,-24"/>
<text text-anchor="middle" x="553.5" y="-284.8" font-family="Arial" font-size="14.00" fill="#000000">cpu </text>
<text text-anchor="middle" x="553.5" y="-269.8" font-family="Arial" font-size="14.00" fill="#000000">: RunaheadO3CPU</text>
</a>
</g>
</g>
<g id="clust76" class="cluster">
<title>cluster_system_cpu_icache</title>
<g id="a_clust76"><a xlink:title="addr_ranges=0:18446744073709551615&#10;assoc=2&#10;clk_domain=system.clk_domain&#10;clusivity=mostly_incl&#10;compressor=Null&#10;data_latency=2&#10;demand_mshr_reserve=1&#10;eventq_index=0&#10;is_read_only=false&#10;max_miss_count=0&#10;move_contractions=true&#10;mshrs=4&#10;power_model=&#10;power_state=system.cpu.icache.power_state&#10;prefetch_on_access=false&#10;prefetch_on_pf_hit=false&#10;prefetcher=Null&#10;&#13;eplace_expansions=true&#10;&#13;eplacement_policy=system.cpu.icache.replacement_policy&#10;&#13;esponse_latency=2&#10;sequential_access=false&#10;size=65536&#10;system=system&#10;tag_latency=2&#10;tags=system.cpu.icache.tags&#10;tgts_per_mshr=20&#10;warmup_percentage=0&#10;write_allocator=Null&#10;write_buffers=8&#10;writeback_clean=false">
<path fill="#bab6ae" stroke="#000000" d="M506,-32C506,-32 668,-32 668,-32 674,-32 680,-38 680,-44 680,-44 680,-111 680,-111 680,-117 674,-123 668,-123 668,-123 506,-123 506,-123 500,-123 494,-117 494,-111 494,-111 494,-44 494,-44 494,-38 500,-32 506,-32"/>
<text text-anchor="middle" x="587" y="-107.8" font-family="Arial" font-size="14.00" fill="#000000">icache </text>
<text text-anchor="middle" x="587" y="-92.8" font-family="Arial" font-size="14.00" fill="#000000">: L1ICache</text>
</a>
</g>
</g>
<g id="clust82" class="cluster">
<title>cluster_system_cpu_dcache</title>
<g id="a_clust82"><a xlink:title="addr_ranges=0:18446744073709551615&#10;assoc=2&#10;clk_domain=system.clk_domain&#10;clusivity=mostly_incl&#10;compressor=Null&#10;data_latency=2&#10;demand_mshr_reserve=1&#10;eventq_index=0&#10;is_read_only=false&#10;max_miss_count=0&#10;move_contractions=true&#10;mshrs=4&#10;power_model=&#10;power_state=system.cpu.dcache.power_state&#10;prefetch_on_access=false&#10;prefetch_on_pf_hit=false&#10;prefetcher=Null&#10;&#13;eplace_expansions=true&#10;&#13;eplacement_policy=system.cpu.dcache.replacement_policy&#10;&#13;esponse_latency=2&#10;sequential_access=false&#10;size=131072&#10;system=system&#10;tag_latency=2&#10;tags=system.cpu.dcache.tags&#10;tgts_per_mshr=20&#10;warmup_percentage=0&#10;write_allocator=Null&#10;write_buffers=8&#10;writeback_clean=false">
<path fill="#bab6ae" stroke="#000000" d="M312,-32C312,-32 474,-32 474,-32 480,-32 486,-38 486,-44 486,-44 486,-111 486,-111 486,-117 480,-123 474,-123 474,-123 312,-123 312,-123 306,-123 300,-117 300,-111 300,-111 300,-44 300,-44 300,-38 306,-32 312,-32"/>
<text text-anchor="middle" x="393" y="-107.8" font-family="Arial" font-size="14.00" fill="#000000">dcache </text>
<text text-anchor="middle" x="393" y="-92.8" font-family="Arial" font-size="14.00" fill="#000000">: L1DCache</text>
</a>
</g>
</g>
<g id="clust88" class="cluster">
<title>cluster_system_cpu_interrupts</title>
<g id="a_clust88"><a xlink:title="clk_domain=system.cpu.interrupts.clk_domain&#10;eventq_index=0&#10;int_latency=1000&#10;pio_latency=100000&#10;system=system">
<path fill="#bab6ae" stroke="#000000" d="M518,-163C518,-163 795,-163 795,-163 801,-163 807,-169 807,-175 807,-175 807,-242 807,-242 807,-248 801,-254 795,-254 795,-254 518,-254 518,-254 512,-254 506,-248 506,-242 506,-242 506,-175 506,-175 506,-169 512,-163 518,-163"/>
<text text-anchor="middle" x="656.5" y="-238.8" font-family="Arial" font-size="14.00" fill="#000000">interrupts </text>
<text text-anchor="middle" x="656.5" y="-223.8" font-family="Arial" font-size="14.00" fill="#000000">: X86LocalApic</text>
</a>
</g>
</g>
<g id="clust92" class="cluster">
<title>cluster_system_l2bus</title>
<g id="a_clust92"><a xlink:title="clk_domain=system.clk_domain&#10;eventq_index=0&#10;forward_latency=0&#10;frontend_latency=1&#10;header_latency=1&#10;max_outstanding_snoops=512&#10;max_routing_table_size=512&#10;point_of_coherency=false&#10;point_of_unification=true&#10;power_model=&#10;power_state=system.l2bus.power_state&#10;&#13;esponse_latency=1&#10;snoop_filter=system.l2bus.snoop_filter&#10;snoop_response_latency=1&#10;system=system&#10;use_default_range=false&#10;width=32">
<path fill="#6f798c" stroke="#000000" d="M36,-163C36,-163 272,-163 272,-163 278,-163 284,-169 284,-175 284,-175 284,-242 284,-242 284,-248 278,-254 272,-254 272,-254 36,-254 36,-254 30,-254 24,-248 24,-242 24,-242 24,-175 24,-175 24,-169 30,-163 36,-163"/>
<text text-anchor="middle" x="154" y="-238.8" font-family="Arial" font-size="14.00" fill="#000000">l2bus </text>
<text text-anchor="middle" x="154" y="-223.8" font-family="Arial" font-size="14.00" fill="#000000">: L2XBar</text>
</a>
</g>
</g>
<g id="clust95" class="cluster">
<title>cluster_system_l2cache</title>
<g id="a_clust95"><a xlink:title="addr_ranges=0:18446744073709551615&#10;assoc=8&#10;clk_domain=system.clk_domain&#10;clusivity=mostly_incl&#10;compressor=Null&#10;data_latency=20&#10;demand_mshr_reserve=1&#10;eventq_index=0&#10;is_read_only=false&#10;max_miss_count=0&#10;move_contractions=true&#10;mshrs=20&#10;power_model=&#10;power_state=system.l2cache.power_state&#10;prefetch_on_access=false&#10;prefetch_on_pf_hit=false&#10;prefetcher=Null&#10;&#13;eplace_expansions=true&#10;&#13;eplacement_policy=system.l2cache.replacement_policy&#10;&#13;esponse_latency=20&#10;sequential_access=false&#10;size=262144&#10;system=system&#10;tag_latency=20&#10;tags=system.l2cache.tags&#10;tgts_per_mshr=12&#10;warmup_percentage=0&#10;write_allocator=Null&#10;write_buffers=8&#10;writeback_clean=false">
<path fill="#bab6ae" stroke="#000000" d="M207,-308C207,-308 369,-308 369,-308 375,-308 381,-314 381,-320 381,-320 381,-387 381,-387 381,-393 375,-399 369,-399 369,-399 207,-399 207,-399 201,-399 195,-393 195,-387 195,-387 195,-320 195,-320 195,-314 201,-308 207,-308"/>
<text text-anchor="middle" x="288" y="-383.8" font-family="Arial" font-size="14.00" fill="#000000">l2cache </text>
<text text-anchor="middle" x="288" y="-368.8" font-family="Arial" font-size="14.00" fill="#000000">: L2Cache</text>
</a>
</g>
</g>
<g id="clust101" class="cluster">
<title>cluster_system_membus</title>
<g id="a_clust101"><a xlink:title="clk_domain=system.clk_domain&#10;eventq_index=0&#10;forward_latency=4&#10;frontend_latency=3&#10;header_latency=1&#10;max_outstanding_snoops=512&#10;max_routing_table_size=512&#10;point_of_coherency=true&#10;point_of_unification=true&#10;power_model=&#10;power_state=system.membus.power_state&#10;&#13;esponse_latency=2&#10;snoop_filter=system.membus.snoop_filter&#10;snoop_response_latency=4&#10;system=system&#10;use_default_range=false&#10;width=16">
<path fill="#6f798c" stroke="#000000" d="M512,-439C512,-439 748,-439 748,-439 754,-439 760,-445 760,-451 760,-451 760,-518 760,-518 760,-524 754,-530 748,-530 748,-530 512,-530 512,-530 506,-530 500,-524 500,-518 500,-518 500,-451 500,-451 500,-445 506,-439 512,-439"/>
<text text-anchor="middle" x="630" y="-514.8" font-family="Arial" font-size="14.00" fill="#000000">membus </text>
<text text-anchor="middle" x="630" y="-499.8" font-family="Arial" font-size="14.00" fill="#000000">: SystemXBar</text>
</a>
</g>
</g>
<g id="clust104" class="cluster">
<title>cluster_system_mem_ctrl</title>
<g id="a_clust104"><a xlink:title="clk_domain=system.clk_domain&#10;command_window=10000&#10;dram=system.mem_ctrl.dram&#10;eventq_index=0&#10;mem_sched_policy=frfcfs&#10;min_writes_per_switch=16&#10;&#10;vm=Null&#10;power_model=&#10;power_state=system.mem_ctrl.power_state&#10;qos_policy=Null&#10;qos_priorities=1&#10;qos_priority_escalation=false&#10;qos_q_policy=fifo&#10;qos_requestors= &#160;&#160;&#160;&#160;&#160;&#160;&#160;&#160;&#160;&#160;&#160;&#160;&#160;&#160;&#10;qos_syncro_scheduler=false&#10;qos_turnaround_policy=Null&#10;static_backend_latency=10000&#10;static_frontend_latency=10000&#10;system=system&#10;write_high_thresh_perc=85&#10;write_low_thresh_perc=50">
<path fill="#bab6ae" stroke="#000000" d="M719,-308C719,-308 772,-308 772,-308 778,-308 784,-314 784,-320 784,-320 784,-387 784,-387 784,-393 778,-399 772,-399 772,-399 719,-399 719,-399 713,-399 707,-393 707,-387 707,-387 707,-320 707,-320 707,-314 713,-308 719,-308"/>
<text text-anchor="middle" x="745.5" y="-383.8" font-family="Arial" font-size="14.00" fill="#000000">mem_ctrl </text>
<text text-anchor="middle" x="745.5" y="-368.8" font-family="Arial" font-size="14.00" fill="#000000">: MemCtrl</text>
</a>
</g>
</g>
<!-- system_system_port -->
<g id="node1" class="node">
<title>system_system_port</title>
<path fill="#b6b8bc" stroke="#000000" d="M528.5,-578.5C528.5,-578.5 595.5,-578.5 595.5,-578.5 601.5,-578.5 607.5,-584.5 607.5,-590.5 607.5,-590.5 607.5,-602.5 607.5,-602.5 607.5,-608.5 601.5,-614.5 595.5,-614.5 595.5,-614.5 528.5,-614.5 528.5,-614.5 522.5,-614.5 516.5,-608.5 516.5,-602.5 516.5,-602.5 516.5,-590.5 516.5,-590.5 516.5,-584.5 522.5,-578.5 528.5,-578.5"/>
<text text-anchor="middle" x="562" y="-592.8" font-family="Arial" font-size="14.00" fill="#000000">system_port</text>
</g>
<!-- system_membus_cpu_side_ports -->
<g id="node15" class="node">
<title>system_membus_cpu_side_ports</title>
<path fill="#586070" stroke="#000000" d="M520,-447.5C520,-447.5 604,-447.5 604,-447.5 610,-447.5 616,-453.5 616,-459.5 616,-459.5 616,-471.5 616,-471.5 616,-477.5 610,-483.5 604,-483.5 604,-483.5 520,-483.5 520,-483.5 514,-483.5 508,-477.5 508,-471.5 508,-471.5 508,-459.5 508,-459.5 508,-453.5 514,-447.5 520,-447.5"/>
<text text-anchor="middle" x="562" y="-461.8" font-family="Arial" font-size="14.00" fill="#000000">cpu_side_ports</text>
</g>
<!-- system_system_port&#45;&gt;system_membus_cpu_side_ports -->
<g id="edge1" class="edge">
<title>system_system_port&#45;&gt;system_membus_cpu_side_ports</title>
<path fill="none" stroke="black" d="M562,-578.37C562,-556.78 562,-519.41 562,-493.85"/>
<polygon fill="black" stroke="black" points="565.5,-493.7 562,-483.7 558.5,-493.7 565.5,-493.7"/>
</g>
<!-- system_cpu_icache_port -->
<g id="node2" class="node">
<title>system_cpu_icache_port</title>
<path fill="#959ead" stroke="#000000" d="M422,-171.5C422,-171.5 484,-171.5 484,-171.5 490,-171.5 496,-177.5 496,-183.5 496,-183.5 496,-195.5 496,-195.5 496,-201.5 490,-207.5 484,-207.5 484,-207.5 422,-207.5 422,-207.5 416,-207.5 410,-201.5 410,-195.5 410,-195.5 410,-183.5 410,-183.5 410,-177.5 416,-171.5 422,-171.5"/>
<text text-anchor="middle" x="453" y="-185.8" font-family="Arial" font-size="14.00" fill="#000000">icache_port</text>
</g>
<!-- system_cpu_icache_cpu_side -->
<g id="node4" class="node">
<title>system_cpu_icache_cpu_side</title>
<path fill="#94918b" stroke="#000000" d="M612.5,-40.5C612.5,-40.5 659.5,-40.5 659.5,-40.5 665.5,-40.5 671.5,-46.5 671.5,-52.5 671.5,-52.5 671.5,-64.5 671.5,-64.5 671.5,-70.5 665.5,-76.5 659.5,-76.5 659.5,-76.5 612.5,-76.5 612.5,-76.5 606.5,-76.5 600.5,-70.5 600.5,-64.5 600.5,-64.5 600.5,-52.5 600.5,-52.5 600.5,-46.5 606.5,-40.5 612.5,-40.5"/>
<text text-anchor="middle" x="636" y="-54.8" font-family="Arial" font-size="14.00" fill="#000000">cpu_side</text>
</g>
<!-- system_cpu_icache_port&#45;&gt;system_cpu_icache_cpu_side -->
<g id="edge2" class="edge">
<title>system_cpu_icache_port&#45;&gt;system_cpu_icache_cpu_side</title>
<path fill="none" stroke="black" d="M485.02,-171.5C490.65,-168.61 496.48,-165.68 502,-163 541.03,-144.09 557.51,-150.55 591,-123 603.6,-112.64 614.32,-97.93 622.13,-85.28"/>
<polygon fill="black" stroke="black" points="625.23,-86.91 627.29,-76.52 619.2,-83.36 625.23,-86.91"/>
</g>
<!-- system_cpu_dcache_port -->
<g id="node3" class="node">
<title>system_cpu_dcache_port</title>
<path fill="#959ead" stroke="#000000" d="M312.5,-171.5C312.5,-171.5 379.5,-171.5 379.5,-171.5 385.5,-171.5 391.5,-177.5 391.5,-183.5 391.5,-183.5 391.5,-195.5 391.5,-195.5 391.5,-201.5 385.5,-207.5 379.5,-207.5 379.5,-207.5 312.5,-207.5 312.5,-207.5 306.5,-207.5 300.5,-201.5 300.5,-195.5 300.5,-195.5 300.5,-183.5 300.5,-183.5 300.5,-177.5 306.5,-171.5 312.5,-171.5"/>
<text text-anchor="middle" x="346" y="-185.8" font-family="Arial" font-size="14.00" fill="#000000">dcache_port</text>
</g>
<!-- system_cpu_dcache_cpu_side -->
<g id="node6" class="node">
<title>system_cpu_dcache_cpu_side</title>
<path fill="#94918b" stroke="#000000" d="M418.5,-40.5C418.5,-40.5 465.5,-40.5 465.5,-40.5 471.5,-40.5 477.5,-46.5 477.5,-52.5 477.5,-52.5 477.5,-64.5 477.5,-64.5 477.5,-70.5 471.5,-76.5 465.5,-76.5 465.5,-76.5 418.5,-76.5 418.5,-76.5 412.5,-76.5 406.5,-70.5 406.5,-64.5 406.5,-64.5 406.5,-52.5 406.5,-52.5 406.5,-46.5 412.5,-40.5 418.5,-40.5"/>
<text text-anchor="middle" x="442" y="-54.8" font-family="Arial" font-size="14.00" fill="#000000">cpu_side</text>
</g>
<!-- system_cpu_dcache_port&#45;&gt;system_cpu_dcache_cpu_side -->
<g id="edge3" class="edge">
<title>system_cpu_dcache_port&#45;&gt;system_cpu_dcache_cpu_side</title>
<path fill="none" stroke="black" d="M359.64,-171.42C370.03,-158.3 384.62,-139.66 397,-123 406.18,-110.64 416.11,-96.7 424.29,-85.04"/>
<polygon fill="black" stroke="black" points="427.31,-86.83 430.17,-76.63 421.58,-82.82 427.31,-86.83"/>
</g>
<!-- system_cpu_icache_mem_side -->
<g id="node5" class="node">
<title>system_cpu_icache_mem_side</title>
<path fill="#94918b" stroke="#000000" d="M514,-40.5C514,-40.5 570,-40.5 570,-40.5 576,-40.5 582,-46.5 582,-52.5 582,-52.5 582,-64.5 582,-64.5 582,-70.5 576,-76.5 570,-76.5 570,-76.5 514,-76.5 514,-76.5 508,-76.5 502,-70.5 502,-64.5 502,-64.5 502,-52.5 502,-52.5 502,-46.5 508,-40.5 514,-40.5"/>
<text text-anchor="middle" x="542" y="-54.8" font-family="Arial" font-size="14.00" fill="#000000">mem_side</text>
</g>
<!-- system_cpu_dcache_mem_side -->
<g id="node7" class="node">
<title>system_cpu_dcache_mem_side</title>
<path fill="#94918b" stroke="#000000" d="M320,-40.5C320,-40.5 376,-40.5 376,-40.5 382,-40.5 388,-46.5 388,-52.5 388,-52.5 388,-64.5 388,-64.5 388,-70.5 382,-76.5 376,-76.5 376,-76.5 320,-76.5 320,-76.5 314,-76.5 308,-70.5 308,-64.5 308,-64.5 308,-52.5 308,-52.5 308,-46.5 314,-40.5 320,-40.5"/>
<text text-anchor="middle" x="348" y="-54.8" font-family="Arial" font-size="14.00" fill="#000000">mem_side</text>
</g>
<!-- system_cpu_interrupts_int_requestor -->
<g id="node8" class="node">
<title>system_cpu_interrupts_int_requestor</title>
<path fill="#94918b" stroke="#000000" d="M526.5,-171.5C526.5,-171.5 597.5,-171.5 597.5,-171.5 603.5,-171.5 609.5,-177.5 609.5,-183.5 609.5,-183.5 609.5,-195.5 609.5,-195.5 609.5,-201.5 603.5,-207.5 597.5,-207.5 597.5,-207.5 526.5,-207.5 526.5,-207.5 520.5,-207.5 514.5,-201.5 514.5,-195.5 514.5,-195.5 514.5,-183.5 514.5,-183.5 514.5,-177.5 520.5,-171.5 526.5,-171.5"/>
<text text-anchor="middle" x="562" y="-185.8" font-family="Arial" font-size="14.00" fill="#000000">int_requestor</text>
</g>
<!-- system_cpu_interrupts_int_responder -->
<g id="node9" class="node">
<title>system_cpu_interrupts_int_responder</title>
<path fill="#94918b" stroke="#000000" d="M639.5,-171.5C639.5,-171.5 714.5,-171.5 714.5,-171.5 720.5,-171.5 726.5,-177.5 726.5,-183.5 726.5,-183.5 726.5,-195.5 726.5,-195.5 726.5,-201.5 720.5,-207.5 714.5,-207.5 714.5,-207.5 639.5,-207.5 639.5,-207.5 633.5,-207.5 627.5,-201.5 627.5,-195.5 627.5,-195.5 627.5,-183.5 627.5,-183.5 627.5,-177.5 633.5,-171.5 639.5,-171.5"/>
<text text-anchor="middle" x="677" y="-185.8" font-family="Arial" font-size="14.00" fill="#000000">int_responder</text>
</g>
<!-- system_cpu_interrupts_pio -->
<g id="node10" class="node">
<title>system_cpu_interrupts_pio</title>
<path fill="#94918b" stroke="#000000" d="M757,-171.5C757,-171.5 787,-171.5 787,-171.5 793,-171.5 799,-177.5 799,-183.5 799,-183.5 799,-195.5 799,-195.5 799,-201.5 793,-207.5 787,-207.5 787,-207.5 757,-207.5 757,-207.5 751,-207.5 745,-201.5 745,-195.5 745,-195.5 745,-183.5 745,-183.5 745,-177.5 751,-171.5 757,-171.5"/>
<text text-anchor="middle" x="772" y="-185.8" font-family="Arial" font-size="14.00" fill="#000000">pio</text>
</g>
<!-- system_l2bus_cpu_side_ports -->
<g id="node11" class="node">
<title>system_l2bus_cpu_side_ports</title>
<path fill="#586070" stroke="#000000" d="M180,-171.5C180,-171.5 264,-171.5 264,-171.5 270,-171.5 276,-177.5 276,-183.5 276,-183.5 276,-195.5 276,-195.5 276,-201.5 270,-207.5 264,-207.5 264,-207.5 180,-207.5 180,-207.5 174,-207.5 168,-201.5 168,-195.5 168,-195.5 168,-183.5 168,-183.5 168,-177.5 174,-171.5 180,-171.5"/>
<text text-anchor="middle" x="222" y="-185.8" font-family="Arial" font-size="14.00" fill="#000000">cpu_side_ports</text>
</g>
<!-- system_l2bus_cpu_side_ports&#45;&gt;system_cpu_icache_mem_side -->
<g id="edge4" class="edge">
<title>system_l2bus_cpu_side_ports&#45;&gt;system_cpu_icache_mem_side</title>
<path fill="none" stroke="black" d="M272.23,-168.06C277.51,-166.23 282.84,-164.5 288,-163 375.9,-137.52 411.5,-170.06 490,-123 508.7,-111.79 523.62,-91.3 532.6,-76.62"/>
<polygon fill="black" stroke="black" points="271.03,-164.78 262.82,-171.47 273.41,-171.36 271.03,-164.78"/>
</g>
<!-- system_l2bus_cpu_side_ports&#45;&gt;system_cpu_dcache_mem_side -->
<g id="edge5" class="edge">
<title>system_l2bus_cpu_side_ports&#45;&gt;system_cpu_dcache_mem_side</title>
<path fill="none" stroke="black" d="M246.01,-163.92C270.95,-138.39 309.32,-99.1 331.2,-76.7"/>
<polygon fill="black" stroke="black" points="243.22,-161.77 238.73,-171.37 248.22,-166.66 243.22,-161.77"/>
</g>
<!-- system_l2bus_mem_side_ports -->
<g id="node12" class="node">
<title>system_l2bus_mem_side_ports</title>
<path fill="#586070" stroke="#000000" d="M44,-171.5C44,-171.5 138,-171.5 138,-171.5 144,-171.5 150,-177.5 150,-183.5 150,-183.5 150,-195.5 150,-195.5 150,-201.5 144,-207.5 138,-207.5 138,-207.5 44,-207.5 44,-207.5 38,-207.5 32,-201.5 32,-195.5 32,-195.5 32,-183.5 32,-183.5 32,-177.5 38,-171.5 44,-171.5"/>
<text text-anchor="middle" x="91" y="-185.8" font-family="Arial" font-size="14.00" fill="#000000">mem_side_ports</text>
</g>
<!-- system_l2cache_cpu_side -->
<g id="node13" class="node">
<title>system_l2cache_cpu_side</title>
<path fill="#94918b" stroke="#000000" d="M313.5,-316.5C313.5,-316.5 360.5,-316.5 360.5,-316.5 366.5,-316.5 372.5,-322.5 372.5,-328.5 372.5,-328.5 372.5,-340.5 372.5,-340.5 372.5,-346.5 366.5,-352.5 360.5,-352.5 360.5,-352.5 313.5,-352.5 313.5,-352.5 307.5,-352.5 301.5,-346.5 301.5,-340.5 301.5,-340.5 301.5,-328.5 301.5,-328.5 301.5,-322.5 307.5,-316.5 313.5,-316.5"/>
<text text-anchor="middle" x="337" y="-330.8" font-family="Arial" font-size="14.00" fill="#000000">cpu_side</text>
</g>
<!-- system_l2cache_cpu_side&#45;&gt;system_l2bus_mem_side_ports -->
<g id="edge6" class="edge">
<title>system_l2cache_cpu_side&#45;&gt;system_l2bus_mem_side_ports</title>
<path fill="none" stroke="black" d="M302.1,-311.76C298.77,-310.29 295.37,-309 292,-308 263.61,-299.6 184.43,-315.16 159,-300 124.21,-279.26 104.62,-233.11 96.13,-207.85"/>
<polygon fill="black" stroke="black" points="300.73,-314.99 311.25,-316.28 303.84,-308.71 300.73,-314.99"/>
</g>
<!-- system_l2cache_mem_side -->
<g id="node14" class="node">
<title>system_l2cache_mem_side</title>
<path fill="#94918b" stroke="#000000" d="M215,-316.5C215,-316.5 271,-316.5 271,-316.5 277,-316.5 283,-322.5 283,-328.5 283,-328.5 283,-340.5 283,-340.5 283,-346.5 277,-352.5 271,-352.5 271,-352.5 215,-352.5 215,-352.5 209,-352.5 203,-346.5 203,-340.5 203,-340.5 203,-328.5 203,-328.5 203,-322.5 209,-316.5 215,-316.5"/>
<text text-anchor="middle" x="243" y="-330.8" font-family="Arial" font-size="14.00" fill="#000000">mem_side</text>
</g>
<!-- system_membus_cpu_side_ports&#45;&gt;system_cpu_interrupts_int_requestor -->
<g id="edge8" class="edge">
<title>system_membus_cpu_side_ports&#45;&gt;system_cpu_interrupts_int_requestor</title>
<path fill="none" stroke="black" d="M562,-437.1C562,-380.85 562,-253.76 562,-207.63"/>
<polygon fill="black" stroke="black" points="558.5,-437.36 562,-447.36 565.5,-437.36 558.5,-437.36"/>
</g>
<!-- system_membus_cpu_side_ports&#45;&gt;system_l2cache_mem_side -->
<g id="edge7" class="edge">
<title>system_membus_cpu_side_ports&#45;&gt;system_l2cache_mem_side</title>
<path fill="none" stroke="black" d="M497.84,-460.68C440.23,-454.65 355.36,-439.09 293,-399 275.06,-387.47 260.8,-367.24 252.17,-352.71"/>
<polygon fill="black" stroke="black" points="497.62,-464.18 507.91,-461.67 498.3,-457.21 497.62,-464.18"/>
</g>
<!-- system_membus_mem_side_ports -->
<g id="node16" class="node">
<title>system_membus_mem_side_ports</title>
<path fill="#586070" stroke="#000000" d="M646,-447.5C646,-447.5 740,-447.5 740,-447.5 746,-447.5 752,-453.5 752,-459.5 752,-459.5 752,-471.5 752,-471.5 752,-477.5 746,-483.5 740,-483.5 740,-483.5 646,-483.5 646,-483.5 640,-483.5 634,-477.5 634,-471.5 634,-471.5 634,-459.5 634,-459.5 634,-453.5 640,-447.5 646,-447.5"/>
<text text-anchor="middle" x="693" y="-461.8" font-family="Arial" font-size="14.00" fill="#000000">mem_side_ports</text>
</g>
<!-- system_membus_mem_side_ports&#45;&gt;system_cpu_interrupts_int_responder -->
<g id="edge10" class="edge">
<title>system_membus_mem_side_ports&#45;&gt;system_cpu_interrupts_int_responder</title>
<path fill="none" stroke="black" d="M692,-447.36C689.31,-401.23 681.88,-274.14 678.6,-217.89"/>
<polygon fill="black" stroke="black" points="682.08,-217.41 678,-207.63 675.09,-217.82 682.08,-217.41"/>
</g>
<!-- system_membus_mem_side_ports&#45;&gt;system_cpu_interrupts_pio -->
<g id="edge9" class="edge">
<title>system_membus_mem_side_ports&#45;&gt;system_cpu_interrupts_pio</title>
<path fill="none" stroke="black" d="M692.97,-447.38C693.06,-408.98 694.2,-318.48 703,-308 712.7,-296.44 724.91,-310.24 736,-300 758.93,-278.83 767.28,-242.83 770.31,-217.91"/>
<polygon fill="black" stroke="black" points="773.82,-217.96 771.33,-207.67 766.85,-217.27 773.82,-217.96"/>
</g>
<!-- system_mem_ctrl_port -->
<g id="node17" class="node">
<title>system_mem_ctrl_port</title>
<path fill="#94918b" stroke="#000000" d="M728,-316.5C728,-316.5 758,-316.5 758,-316.5 764,-316.5 770,-322.5 770,-328.5 770,-328.5 770,-340.5 770,-340.5 770,-346.5 764,-352.5 758,-352.5 758,-352.5 728,-352.5 728,-352.5 722,-352.5 716,-346.5 716,-340.5 716,-340.5 716,-328.5 716,-328.5 716,-322.5 722,-316.5 728,-316.5"/>
<text text-anchor="middle" x="743" y="-330.8" font-family="Arial" font-size="14.00" fill="#000000">port</text>
</g>
<!-- system_membus_mem_side_ports&#45;&gt;system_mem_ctrl_port -->
<g id="edge11" class="edge">
<title>system_membus_mem_side_ports&#45;&gt;system_mem_ctrl_port</title>
<path fill="none" stroke="black" d="M699.64,-447.37C708.08,-425.59 722.75,-387.74 732.66,-362.17"/>
<polygon fill="black" stroke="black" points="735.98,-363.29 736.33,-352.7 729.46,-360.76 735.98,-363.29"/>
</g>
</g>
</svg>
